<?xml version="1.0" encoding="UTF-8" standalone="no"?>
<svg
   xmlns:dc="http://purl.org/dc/elements/1.1/"
   xmlns:cc="http://creativecommons.org/ns#"
   xmlns:rdf="http://www.w3.org/1999/02/22-rdf-syntax-ns#"
   xmlns:svg="http://www.w3.org/2000/svg"
   xmlns="http://www.w3.org/2000/svg"
   xmlns:sodipodi="http://sodipodi.sourceforge.net/DTD/sodipodi-0.dtd"
   xmlns:inkscape="http://www.inkscape.org/namespaces/inkscape"
   width="24.66037mm"
   height="49.534546mm"
   viewBox="0 0 24.660369 49.534547"
   version="1.1"
   id="svg8"
   inkscape:version="1.0.2 (1.0.2+r75+1)"
   sodipodi:docname="gb_left_top_off.svg">
  <defs
     id="defs2">
    <marker
       style="overflow:visible"
       id="marker4644"
       refX="0"
       refY="0"
       orient="auto"
       inkscape:stockid="Arrow1Lstart"
       inkscape:isstock="true">
      <path
         transform="matrix(0.8,0,0,0.8,10,0)"
         style="fill:#6b3e57;fill-opacity:1;fill-rule:evenodd;stroke:#6b3f58;stroke-width:1pt;stroke-opacity:1"
         d="M 0,0 5,-5 -12.5,0 5,5 Z"
         id="path4642" />
    </marker>
    <marker
       style="overflow:visible"
       id="marker4634"
       refX="0"
       refY="0"
       orient="auto"
       inkscape:stockid="Arrow1Lstart"
       inkscape:isstock="true">
      <path
         transform="matrix(0.8,0,0,0.8,10,0)"
         style="fill:#262648;fill-opacity:1;fill-rule:evenodd;stroke:#2c2f64;stroke-width:1pt;stroke-opacity:1"
         d="M 0,0 5,-5 -12.5,0 5,5 Z"
         id="path4632" />
    </marker>
    <marker
       style="overflow:visible"
       id="marker4248"
       refX="0"
       refY="0"
       orient="auto"
       inkscape:stockid="Arrow1Lstart"
       inkscape:isstock="true">
      <path
         transform="matrix(0.8,0,0,0.8,10,0)"
         style="fill:#000000;fill-opacity:1;fill-rule:evenodd;stroke:#000000;stroke-width:1pt;stroke-opacity:1"
         d="M 0,0 5,-5 -12.5,0 5,5 Z"
         id="path4246" />
    </marker>
    <marker
       style="overflow:visible"
       id="marker4064"
       refX="0"
       refY="0"
       orient="auto"
       inkscape:stockid="Arrow1Lstart"
       inkscape:isstock="true">
      <path
         transform="matrix(0.8,0,0,0.8,10,0)"
         style="fill:#000000;fill-opacity:1;fill-rule:evenodd;stroke:#000000;stroke-width:1pt;stroke-opacity:1"
         d="M 0,0 5,-5 -12.5,0 5,5 Z"
         id="path4062" />
    </marker>
    <marker
       style="overflow:visible"
       id="marker3886"
       refX="0"
       refY="0"
       orient="auto"
       inkscape:stockid="Arrow1Lstart"
       inkscape:isstock="true">
      <path
         transform="matrix(0.8,0,0,0.8,10,0)"
         style="fill:#000000;fill-opacity:1;fill-rule:evenodd;stroke:#000000;stroke-width:1pt;stroke-opacity:1"
         d="M 0,0 5,-5 -12.5,0 5,5 Z"
         id="path3884" />
    </marker>
    <marker
       style="overflow:visible"
       id="marker3714"
       refX="0"
       refY="0"
       orient="auto"
       inkscape:stockid="Arrow1Lstart"
       inkscape:isstock="true">
      <path
         transform="matrix(0.8,0,0,0.8,10,0)"
         style="fill:#000000;fill-opacity:1;fill-rule:evenodd;stroke:#000000;stroke-width:1pt;stroke-opacity:1"
         d="M 0,0 5,-5 -12.5,0 5,5 Z"
         id="path3712" />
    </marker>
    <marker
       style="overflow:visible"
       id="marker3548"
       refX="0"
       refY="0"
       orient="auto"
       inkscape:stockid="Arrow1Lstart"
       inkscape:isstock="true">
      <path
         transform="matrix(0.8,0,0,0.8,10,0)"
         style="fill:#000000;fill-opacity:1;fill-rule:evenodd;stroke:#000000;stroke-width:1pt;stroke-opacity:1"
         d="M 0,0 5,-5 -12.5,0 5,5 Z"
         id="path3546" />
    </marker>
    <marker
       style="overflow:visible"
       id="marker3388"
       refX="0"
       refY="0"
       orient="auto"
       inkscape:stockid="Arrow1Lstart"
       inkscape:isstock="true">
      <path
         transform="matrix(0.8,0,0,0.8,10,0)"
         style="fill:#000000;fill-opacity:1;fill-rule:evenodd;stroke:#000000;stroke-width:1pt;stroke-opacity:1"
         d="M 0,0 5,-5 -12.5,0 5,5 Z"
         id="path3386" />
    </marker>
    <marker
       style="overflow:visible"
       id="marker3234"
       refX="0"
       refY="0"
       orient="auto"
       inkscape:stockid="Arrow1Lstart"
       inkscape:isstock="true">
      <path
         transform="matrix(0.8,0,0,0.8,10,0)"
         style="fill:#000000;fill-opacity:1;fill-rule:evenodd;stroke:#000000;stroke-width:1pt;stroke-opacity:1"
         d="M 0,0 5,-5 -12.5,0 5,5 Z"
         id="path3232" />
    </marker>
    <marker
       style="overflow:visible"
       id="marker3086"
       refX="0"
       refY="0"
       orient="auto"
       inkscape:stockid="Arrow1Lstart"
       inkscape:isstock="true">
      <path
         transform="matrix(0.8,0,0,0.8,10,0)"
         style="fill:#000000;fill-opacity:1;fill-rule:evenodd;stroke:#000000;stroke-width:1pt;stroke-opacity:1"
         d="M 0,0 5,-5 -12.5,0 5,5 Z"
         id="path3084" />
    </marker>
    <marker
       style="overflow:visible"
       id="marker2944"
       refX="0"
       refY="0"
       orient="auto"
       inkscape:stockid="Arrow1Lstart"
       inkscape:isstock="true">
      <path
         transform="matrix(0.8,0,0,0.8,10,0)"
         style="fill:#000000;fill-opacity:1;fill-rule:evenodd;stroke:#000000;stroke-width:1pt;stroke-opacity:1"
         d="M 0,0 5,-5 -12.5,0 5,5 Z"
         id="path2942" />
    </marker>
    <marker
       style="overflow:visible"
       id="marker2808"
       refX="0"
       refY="0"
       orient="auto"
       inkscape:stockid="Arrow1Lstart"
       inkscape:isstock="true">
      <path
         transform="matrix(0.8,0,0,0.8,10,0)"
         style="fill:#000000;fill-opacity:1;fill-rule:evenodd;stroke:#000000;stroke-width:1pt;stroke-opacity:1"
         d="M 0,0 5,-5 -12.5,0 5,5 Z"
         id="path2806" />
    </marker>
    <marker
       style="overflow:visible"
       id="marker2678"
       refX="0"
       refY="0"
       orient="auto"
       inkscape:stockid="Arrow1Lstart"
       inkscape:isstock="true">
      <path
         transform="matrix(0.8,0,0,0.8,10,0)"
         style="fill:#000000;fill-opacity:1;fill-rule:evenodd;stroke:#000000;stroke-width:1pt;stroke-opacity:1"
         d="M 0,0 5,-5 -12.5,0 5,5 Z"
         id="path2676" />
    </marker>
    <marker
       style="overflow:visible"
       id="marker2554"
       refX="0"
       refY="0"
       orient="auto"
       inkscape:stockid="Arrow1Lstart"
       inkscape:isstock="true">
      <path
         transform="matrix(0.8,0,0,0.8,10,0)"
         style="fill:#000000;fill-opacity:1;fill-rule:evenodd;stroke:#000000;stroke-width:1pt;stroke-opacity:1"
         d="M 0,0 5,-5 -12.5,0 5,5 Z"
         id="path2552" />
    </marker>
    <marker
       style="overflow:visible"
       id="marker2436"
       refX="0"
       refY="0"
       orient="auto"
       inkscape:stockid="Arrow1Lstart"
       inkscape:isstock="true">
      <path
         transform="matrix(0.8,0,0,0.8,10,0)"
         style="fill:#000000;fill-opacity:1;fill-rule:evenodd;stroke:#000000;stroke-width:1pt;stroke-opacity:1"
         d="M 0,0 5,-5 -12.5,0 5,5 Z"
         id="path2434" />
    </marker>
    <marker
       style="overflow:visible"
       id="marker2324"
       refX="0"
       refY="0"
       orient="auto"
       inkscape:stockid="Arrow1Lstart"
       inkscape:isstock="true">
      <path
         transform="matrix(0.8,0,0,0.8,10,0)"
         style="fill:#000000;fill-opacity:1;fill-rule:evenodd;stroke:#000000;stroke-width:1pt;stroke-opacity:1"
         d="M 0,0 5,-5 -12.5,0 5,5 Z"
         id="path2322" />
    </marker>
    <marker
       style="overflow:visible"
       id="marker2218"
       refX="0"
       refY="0"
       orient="auto"
       inkscape:stockid="Arrow1Lstart"
       inkscape:isstock="true">
      <path
         transform="matrix(0.8,0,0,0.8,10,0)"
         style="fill:#000000;fill-opacity:1;fill-rule:evenodd;stroke:#000000;stroke-width:1pt;stroke-opacity:1"
         d="M 0,0 5,-5 -12.5,0 5,5 Z"
         id="path2216" />
    </marker>
    <marker
       style="overflow:visible"
       id="marker2118"
       refX="0"
       refY="0"
       orient="auto"
       inkscape:stockid="Arrow1Lstart"
       inkscape:isstock="true">
      <path
         transform="matrix(0.8,0,0,0.8,10,0)"
         style="fill:#000000;fill-opacity:1;fill-rule:evenodd;stroke:#000000;stroke-width:1pt;stroke-opacity:1"
         d="M 0,0 5,-5 -12.5,0 5,5 Z"
         id="path2116" />
    </marker>
    <marker
       style="overflow:visible"
       id="marker2024"
       refX="0"
       refY="0"
       orient="auto"
       inkscape:stockid="Arrow1Lstart"
       inkscape:isstock="true">
      <path
         transform="matrix(0.8,0,0,0.8,10,0)"
         style="fill:#000000;fill-opacity:1;fill-rule:evenodd;stroke:#000000;stroke-width:1pt;stroke-opacity:1"
         d="M 0,0 5,-5 -12.5,0 5,5 Z"
         id="path2022" />
    </marker>
    <marker
       style="overflow:visible"
       id="marker1936"
       refX="0"
       refY="0"
       orient="auto"
       inkscape:stockid="Arrow1Lstart"
       inkscape:isstock="true">
      <path
         transform="matrix(0.8,0,0,0.8,10,0)"
         style="fill:#000000;fill-opacity:1;fill-rule:evenodd;stroke:#000000;stroke-width:1pt;stroke-opacity:1"
         d="M 0,0 5,-5 -12.5,0 5,5 Z"
         id="path1934" />
    </marker>
    <marker
       style="overflow:visible"
       id="marker1854"
       refX="0"
       refY="0"
       orient="auto"
       inkscape:stockid="Arrow1Lstart"
       inkscape:isstock="true">
      <path
         transform="matrix(0.8,0,0,0.8,10,0)"
         style="fill:#000000;fill-opacity:1;fill-rule:evenodd;stroke:#000000;stroke-width:1pt;stroke-opacity:1"
         d="M 0,0 5,-5 -12.5,0 5,5 Z"
         id="path1852" />
    </marker>
    <marker
       style="overflow:visible"
       id="marker1778"
       refX="0"
       refY="0"
       orient="auto"
       inkscape:stockid="Arrow1Lstart"
       inkscape:isstock="true">
      <path
         transform="matrix(0.8,0,0,0.8,10,0)"
         style="fill:#000000;fill-opacity:1;fill-rule:evenodd;stroke:#000000;stroke-width:1pt;stroke-opacity:1"
         d="M 0,0 5,-5 -12.5,0 5,5 Z"
         id="path1776" />
    </marker>
    <marker
       style="overflow:visible"
       id="marker1708"
       refX="0"
       refY="0"
       orient="auto"
       inkscape:stockid="Arrow1Lstart"
       inkscape:isstock="true">
      <path
         transform="matrix(0.8,0,0,0.8,10,0)"
         style="fill:#000000;fill-opacity:1;fill-rule:evenodd;stroke:#000000;stroke-width:1pt;stroke-opacity:1"
         d="M 0,0 5,-5 -12.5,0 5,5 Z"
         id="path1706" />
    </marker>
    <marker
       style="overflow:visible"
       id="marker1644"
       refX="0"
       refY="0"
       orient="auto"
       inkscape:stockid="Arrow1Lstart"
       inkscape:isstock="true">
      <path
         transform="matrix(0.8,0,0,0.8,10,0)"
         style="fill:#000000;fill-opacity:1;fill-rule:evenodd;stroke:#000000;stroke-width:1pt;stroke-opacity:1"
         d="M 0,0 5,-5 -12.5,0 5,5 Z"
         id="path1642" />
    </marker>
    <marker
       style="overflow:visible"
       id="marker1586"
       refX="0"
       refY="0"
       orient="auto"
       inkscape:stockid="Arrow1Lstart"
       inkscape:isstock="true">
      <path
         transform="matrix(0.8,0,0,0.8,10,0)"
         style="fill:#000000;fill-opacity:1;fill-rule:evenodd;stroke:#000000;stroke-width:1pt;stroke-opacity:1"
         d="M 0,0 5,-5 -12.5,0 5,5 Z"
         id="path1584" />
    </marker>
    <marker
       style="overflow:visible"
       id="marker1534"
       refX="0"
       refY="0"
       orient="auto"
       inkscape:stockid="Arrow1Lstart"
       inkscape:isstock="true">
      <path
         transform="matrix(0.8,0,0,0.8,10,0)"
         style="fill:#000000;fill-opacity:1;fill-rule:evenodd;stroke:#000000;stroke-width:1pt;stroke-opacity:1"
         d="M 0,0 5,-5 -12.5,0 5,5 Z"
         id="path1532" />
    </marker>
    <marker
       style="overflow:visible"
       id="marker1488"
       refX="0"
       refY="0"
       orient="auto"
       inkscape:stockid="Arrow1Lstart"
       inkscape:isstock="true">
      <path
         transform="matrix(0.8,0,0,0.8,10,0)"
         style="fill:#000000;fill-opacity:1;fill-rule:evenodd;stroke:#000000;stroke-width:1pt;stroke-opacity:1"
         d="M 0,0 5,-5 -12.5,0 5,5 Z"
         id="path1486" />
    </marker>
    <marker
       style="overflow:visible"
       id="marker1448"
       refX="0"
       refY="0"
       orient="auto"
       inkscape:stockid="Arrow1Lstart"
       inkscape:isstock="true">
      <path
         transform="matrix(0.8,0,0,0.8,10,0)"
         style="fill:#000000;fill-opacity:1;fill-rule:evenodd;stroke:#000000;stroke-width:1pt;stroke-opacity:1"
         d="M 0,0 5,-5 -12.5,0 5,5 Z"
         id="path1446" />
    </marker>
    <marker
       style="overflow:visible"
       id="marker1414"
       refX="0"
       refY="0"
       orient="auto"
       inkscape:stockid="Arrow1Lstart"
       inkscape:isstock="true">
      <path
         transform="matrix(0.8,0,0,0.8,10,0)"
         style="fill:#000000;fill-opacity:1;fill-rule:evenodd;stroke:#000000;stroke-width:1pt;stroke-opacity:1"
         d="M 0,0 5,-5 -12.5,0 5,5 Z"
         id="path1412" />
    </marker>
    <marker
       style="overflow:visible"
       id="marker1386"
       refX="0"
       refY="0"
       orient="auto"
       inkscape:stockid="Arrow1Lstart"
       inkscape:isstock="true">
      <path
         transform="matrix(0.8,0,0,0.8,10,0)"
         style="fill:#000000;fill-opacity:1;fill-rule:evenodd;stroke:#000000;stroke-width:1pt;stroke-opacity:1"
         d="M 0,0 5,-5 -12.5,0 5,5 Z"
         id="path1384" />
    </marker>
    <marker
       style="overflow:visible"
       id="Arrow1Lstart"
       refX="0"
       refY="0"
       orient="auto"
       inkscape:stockid="Arrow1Lstart"
       inkscape:isstock="true">
      <path
         transform="matrix(0.8,0,0,0.8,10,0)"
         style="fill:#000000;fill-opacity:1;fill-rule:evenodd;stroke:#000000;stroke-width:1pt;stroke-opacity:1"
         d="M 0,0 5,-5 -12.5,0 5,5 Z"
         id="path1102" />
    </marker>
    <marker
       style="overflow:visible"
       id="marker4644-5"
       refX="0"
       refY="0"
       orient="auto"
       inkscape:stockid="Arrow1Lstart"
       inkscape:isstock="true">
      <path
         transform="matrix(0.8,0,0,0.8,10,0)"
         style="fill:#6b3e57;fill-opacity:1;fill-rule:evenodd;stroke:#6b3f58;stroke-width:1pt;stroke-opacity:1"
         d="M 0,0 5,-5 -12.5,0 5,5 Z"
         id="path4642-4" />
    </marker>
    <marker
       style="overflow:visible"
       id="marker4634-3"
       refX="0"
       refY="0"
       orient="auto"
       inkscape:stockid="Arrow1Lstart"
       inkscape:isstock="true">
      <path
         transform="matrix(0.8,0,0,0.8,10,0)"
         style="fill:#262648;fill-opacity:1;fill-rule:evenodd;stroke:#2c2f64;stroke-width:1pt;stroke-opacity:1"
         d="M 0,0 5,-5 -12.5,0 5,5 Z"
         id="path4632-9" />
    </marker>
  </defs>
  <sodipodi:namedview
     id="base"
     pagecolor="#ffffff"
     bordercolor="#666666"
     borderopacity="1.0"
     inkscape:pageopacity="0.0"
     inkscape:pageshadow="2"
     inkscape:zoom="2.1861106"
     inkscape:cx="-55.806045"
     inkscape:cy="15.021641"
     inkscape:document-units="mm"
     inkscape:current-layer="text6684-8"
     inkscape:document-rotation="0"
     showgrid="false"
     inkscape:window-width="1853"
     inkscape:window-height="1025"
     inkscape:window-x="67"
     inkscape:window-y="27"
     inkscape:window-maximized="1" />
  <metadata
     id="metadata5">
    <rdf:RDF>
      <cc:Work
         rdf:about="">
        <dc:format>image/svg+xml</dc:format>
        <dc:type
           rdf:resource="http://purl.org/dc/dcmitype/StillImage" />
        <dc:title />
      </cc:Work>
    </rdf:RDF>
  </metadata>
  <g
     inkscape:label="Layer 1"
     inkscape:groupmode="layer"
     id="layer1"
     transform="translate(-684.08037,21.463936)">
    <text
       xml:space="preserve"
       style="font-style:normal;font-weight:normal;font-size:1.05833px;line-height:1.25;font-family:sans-serif;fill:#000000;fill-opacity:1;stroke:none;stroke-width:0.0264583"
       x="583.81793"
       y="70.34951"
       id="text1074"><tspan
         sodipodi:role="line"
         id="tspan1072"
         x="583.81793"
         y="70.34951"
         style="stroke-width:0.0264583" /></text>
    <path
       id="rect940-1-0"
       style="fill:#d3cbc8;fill-opacity:1;stroke-width:0.446969;stroke-miterlimit:4;stroke-dasharray:none"
       d="m 684.08037,-21.463936 v 49.534547 h 24.66037 v -49.534547 z"
       sodipodi:nodetypes="ccccc" />
    <path
       id="rect982-9"
       style="fill:#706b71;fill-opacity:1;stroke-width:0.23554"
       d="m 692.54926,-21.463936 v 14.034544 0.395997 6.5457488 12.8566842 15.701573 h 16.19148 v -49.534547 z"
       sodipodi:nodetypes="ccccccccc" />
    <circle
       style="fill:#550000;fill-opacity:1;stroke:none;stroke-width:0.546187;stroke-miterlimit:4;stroke-dasharray:13.1085, 0.546187;stroke-dashoffset:0;stroke-opacity:1"
       id="path6660-1-6"
       cx="700.15942"
       cy="19.579664"
       r="2.4503264" />
    <circle
       style="fill:#2b0000;fill-opacity:1;stroke:none;stroke-width:0.367973;stroke-miterlimit:4;stroke-dasharray:8.83137, 0.36797299999999999;stroke-dashoffset:0;stroke-opacity:1"
       id="path6660-3"
       cx="700.04102"
       cy="19.408289"
       r="1.6508157" />
    <g
       aria-label="BATTERY"
       id="text6684-8"
       style="font-style:normal;font-weight:normal;font-size:1.05833px;line-height:1.25;font-family:sans-serif;fill:#999999;fill-opacity:1;stroke:none;stroke-width:0.0264583">
      <path
         d="m 695.86251,26.491573 h 0.5672 q 0.2127,0 0.3574,-0.128778 0.14469,-0.128777 0.14469,-0.303857 0,-0.175079 -0.14469,-0.30241 -0.1447,-0.127331 -0.3574,-0.127331 h -0.5672 z m 0.90723,-1.393402 v -0.0029 q 0,-0.125884 -0.10707,-0.221382 -0.10563,-0.09694 -0.26045,-0.09694 h -0.53971 v 0.632312 h 0.53971 q 0.15772,0 0.2619,-0.0926 0.10562,-0.09405 0.10562,-0.218488 z m -0.35884,-0.544049 q 0.24309,0 0.41672,0.16061 0.17508,0.159163 0.17508,0.383439 0,0.118649 -0.0535,0.224275 -0.0535,0.10418 -0.14758,0.177974 0.16495,0.08392 0.26189,0.232957 0.0984,0.147588 0.0984,0.325561 0,0.180867 -0.10128,0.332796 -0.0998,0.151929 -0.26769,0.237298 -0.16784,0.08537 -0.36318,0.08537 h -0.79726 v -2.160279 z"
         style="font-style:normal;font-variant:normal;font-weight:bold;font-stretch:normal;font-size:2.96333px;font-family:Sawasdee;-inkscape-font-specification:'Sawasdee, Normal';font-variant-ligatures:normal;font-variant-caps:normal;font-variant-numeric:normal;font-variant-east-asian:normal;opacity:0.993224;fill:#999999;fill-opacity:1;stroke-width:0.0264583"
         id="path1103" />
      <path
         d="m 697.90993,25.849132 h 0.70177 L 698.25864,25.1083 Z m -0.10563,0.222829 -0.26768,0.639546 h -0.24598 l 0.96511,-2.179089 0.96511,2.179089 h -0.24743 l -0.27202,-0.639546 z"
         style="font-style:normal;font-variant:normal;font-weight:bold;font-stretch:normal;font-size:2.96333px;font-family:Sawasdee;-inkscape-font-specification:'Sawasdee, Normal';font-variant-ligatures:normal;font-variant-caps:normal;font-variant-numeric:normal;font-variant-east-asian:normal;opacity:0.993224;fill:#999999;fill-opacity:1;stroke-width:0.0264583"
         id="path1105" />
      <path
         d="m 700.52744,24.554122 v 0.222829 h -0.54983 v 1.93745 h -0.22573 v -1.93745 h -0.55128 v -0.222829 z"
         style="font-style:normal;font-variant:normal;font-weight:bold;font-stretch:normal;font-size:2.96333px;font-family:Sawasdee;-inkscape-font-specification:'Sawasdee, Normal';font-variant-ligatures:normal;font-variant-caps:normal;font-variant-numeric:normal;font-variant-east-asian:normal;opacity:0.993224;fill:#999999;fill-opacity:1;stroke-width:0.0264583"
         id="path1107" />
      <path
         d="m 701.9165,24.554122 v 0.222829 h -0.54983 v 1.93745 h -0.22573 v -1.93745 h -0.55128 v -0.222829 z"
         style="font-style:normal;font-variant:normal;font-weight:bold;font-stretch:normal;font-size:2.96333px;font-family:Sawasdee;-inkscape-font-specification:'Sawasdee, Normal';font-variant-ligatures:normal;font-variant-caps:normal;font-variant-numeric:normal;font-variant-east-asian:normal;opacity:0.993224;fill:#999999;fill-opacity:1;stroke-width:0.0264583"
         id="path1109" />
      <path
         d="m 703.39383,25.357173 v 0.222828 h -1.01431 v 0.911572 h 1.09823 v 0.222828 h -1.32829 v -2.160279 h 1.33552 v 0.222829 h -1.10546 v 0.580222 z"
         style="font-style:normal;font-variant:normal;font-weight:bold;font-stretch:normal;font-size:2.96333px;font-family:Sawasdee;-inkscape-font-specification:'Sawasdee, Normal';font-variant-ligatures:normal;font-variant-caps:normal;font-variant-numeric:normal;font-variant-east-asian:normal;opacity:0.993224;fill:#999999;fill-opacity:1;stroke-width:0.0264583"
         id="path1111" />
      <path
         d="m 703.82791,26.714401 v -2.160279 h 0.80305 q 0.24887,0 0.42251,0.176527 0.17363,0.175079 0.17363,0.422506 0,0.196783 -0.11431,0.353053 -0.11286,0.154822 -0.29373,0.214147 l 0.55997,0.994046 h -0.2619 l -0.54405,-0.968002 h -0.51511 v 0.968002 z m 0.23006,-1.192277 h 0.58022 q 0.14615,0 0.25177,-0.107074 0.10707,-0.10852 0.10707,-0.261895 0,-0.15627 -0.10707,-0.266237 -0.10707,-0.109967 -0.259,-0.109967 h -0.57299 z"
         style="font-style:normal;font-variant:normal;font-weight:bold;font-stretch:normal;font-size:2.96333px;font-family:Sawasdee;-inkscape-font-specification:'Sawasdee, Normal';font-variant-ligatures:normal;font-variant-caps:normal;font-variant-numeric:normal;font-variant-east-asian:normal;opacity:0.993224;fill:#999999;fill-opacity:1;stroke-width:0.0264583"
         id="path1113" />
      <path
         d="m 705.31247,24.554122 h 0.26479 l 0.64823,0.998388 0.64533,-0.998388 h 0.26479 l -0.79726,1.234239 v 0.92604 h -0.23007 v -0.92604 z"
         style="font-style:normal;font-variant:normal;font-weight:bold;font-stretch:normal;font-size:2.96333px;font-family:Sawasdee;-inkscape-font-specification:'Sawasdee, Normal';font-variant-ligatures:normal;font-variant-caps:normal;font-variant-numeric:normal;font-variant-east-asian:normal;opacity:0.993224;fill:#999999;fill-opacity:1;stroke-width:0.0264583"
         id="path1115" />
    </g>
  </g>
</svg>
