<?xml version="1.0" encoding="UTF-8" standalone="no"?>
<svg
   xmlns:dc="http://purl.org/dc/elements/1.1/"
   xmlns:cc="http://creativecommons.org/ns#"
   xmlns:rdf="http://www.w3.org/1999/02/22-rdf-syntax-ns#"
   xmlns:svg="http://www.w3.org/2000/svg"
   xmlns="http://www.w3.org/2000/svg"
   xmlns:sodipodi="http://sodipodi.sourceforge.net/DTD/sodipodi-0.dtd"
   xmlns:inkscape="http://www.inkscape.org/namespaces/inkscape"
   width="32.798874mm"
   height="27.014385mm"
   viewBox="0 0 32.798873 27.014385"
   version="1.1"
   id="svg8"
   inkscape:version="1.0.2 (1.0.2+r75+1)"
   sodipodi:docname="gb_top_left.svg">
  <defs
     id="defs2">
    <marker
       style="overflow:visible"
       id="marker4644"
       refX="0"
       refY="0"
       orient="auto"
       inkscape:stockid="Arrow1Lstart"
       inkscape:isstock="true">
      <path
         transform="matrix(0.8,0,0,0.8,10,0)"
         style="fill:#6b3e57;fill-opacity:1;fill-rule:evenodd;stroke:#6b3f58;stroke-width:1pt;stroke-opacity:1"
         d="M 0,0 5,-5 -12.5,0 5,5 Z"
         id="path4642" />
    </marker>
    <marker
       style="overflow:visible"
       id="marker4634"
       refX="0"
       refY="0"
       orient="auto"
       inkscape:stockid="Arrow1Lstart"
       inkscape:isstock="true">
      <path
         transform="matrix(0.8,0,0,0.8,10,0)"
         style="fill:#262648;fill-opacity:1;fill-rule:evenodd;stroke:#2c2f64;stroke-width:1pt;stroke-opacity:1"
         d="M 0,0 5,-5 -12.5,0 5,5 Z"
         id="path4632" />
    </marker>
    <marker
       style="overflow:visible"
       id="marker4248"
       refX="0"
       refY="0"
       orient="auto"
       inkscape:stockid="Arrow1Lstart"
       inkscape:isstock="true">
      <path
         transform="matrix(0.8,0,0,0.8,10,0)"
         style="fill:#000000;fill-opacity:1;fill-rule:evenodd;stroke:#000000;stroke-width:1pt;stroke-opacity:1"
         d="M 0,0 5,-5 -12.5,0 5,5 Z"
         id="path4246" />
    </marker>
    <marker
       style="overflow:visible"
       id="marker4064"
       refX="0"
       refY="0"
       orient="auto"
       inkscape:stockid="Arrow1Lstart"
       inkscape:isstock="true">
      <path
         transform="matrix(0.8,0,0,0.8,10,0)"
         style="fill:#000000;fill-opacity:1;fill-rule:evenodd;stroke:#000000;stroke-width:1pt;stroke-opacity:1"
         d="M 0,0 5,-5 -12.5,0 5,5 Z"
         id="path4062" />
    </marker>
    <marker
       style="overflow:visible"
       id="marker3886"
       refX="0"
       refY="0"
       orient="auto"
       inkscape:stockid="Arrow1Lstart"
       inkscape:isstock="true">
      <path
         transform="matrix(0.8,0,0,0.8,10,0)"
         style="fill:#000000;fill-opacity:1;fill-rule:evenodd;stroke:#000000;stroke-width:1pt;stroke-opacity:1"
         d="M 0,0 5,-5 -12.5,0 5,5 Z"
         id="path3884" />
    </marker>
    <marker
       style="overflow:visible"
       id="marker3714"
       refX="0"
       refY="0"
       orient="auto"
       inkscape:stockid="Arrow1Lstart"
       inkscape:isstock="true">
      <path
         transform="matrix(0.8,0,0,0.8,10,0)"
         style="fill:#000000;fill-opacity:1;fill-rule:evenodd;stroke:#000000;stroke-width:1pt;stroke-opacity:1"
         d="M 0,0 5,-5 -12.5,0 5,5 Z"
         id="path3712" />
    </marker>
    <marker
       style="overflow:visible"
       id="marker3548"
       refX="0"
       refY="0"
       orient="auto"
       inkscape:stockid="Arrow1Lstart"
       inkscape:isstock="true">
      <path
         transform="matrix(0.8,0,0,0.8,10,0)"
         style="fill:#000000;fill-opacity:1;fill-rule:evenodd;stroke:#000000;stroke-width:1pt;stroke-opacity:1"
         d="M 0,0 5,-5 -12.5,0 5,5 Z"
         id="path3546" />
    </marker>
    <marker
       style="overflow:visible"
       id="marker3388"
       refX="0"
       refY="0"
       orient="auto"
       inkscape:stockid="Arrow1Lstart"
       inkscape:isstock="true">
      <path
         transform="matrix(0.8,0,0,0.8,10,0)"
         style="fill:#000000;fill-opacity:1;fill-rule:evenodd;stroke:#000000;stroke-width:1pt;stroke-opacity:1"
         d="M 0,0 5,-5 -12.5,0 5,5 Z"
         id="path3386" />
    </marker>
    <marker
       style="overflow:visible"
       id="marker3234"
       refX="0"
       refY="0"
       orient="auto"
       inkscape:stockid="Arrow1Lstart"
       inkscape:isstock="true">
      <path
         transform="matrix(0.8,0,0,0.8,10,0)"
         style="fill:#000000;fill-opacity:1;fill-rule:evenodd;stroke:#000000;stroke-width:1pt;stroke-opacity:1"
         d="M 0,0 5,-5 -12.5,0 5,5 Z"
         id="path3232" />
    </marker>
    <marker
       style="overflow:visible"
       id="marker3086"
       refX="0"
       refY="0"
       orient="auto"
       inkscape:stockid="Arrow1Lstart"
       inkscape:isstock="true">
      <path
         transform="matrix(0.8,0,0,0.8,10,0)"
         style="fill:#000000;fill-opacity:1;fill-rule:evenodd;stroke:#000000;stroke-width:1pt;stroke-opacity:1"
         d="M 0,0 5,-5 -12.5,0 5,5 Z"
         id="path3084" />
    </marker>
    <marker
       style="overflow:visible"
       id="marker2944"
       refX="0"
       refY="0"
       orient="auto"
       inkscape:stockid="Arrow1Lstart"
       inkscape:isstock="true">
      <path
         transform="matrix(0.8,0,0,0.8,10,0)"
         style="fill:#000000;fill-opacity:1;fill-rule:evenodd;stroke:#000000;stroke-width:1pt;stroke-opacity:1"
         d="M 0,0 5,-5 -12.5,0 5,5 Z"
         id="path2942" />
    </marker>
    <marker
       style="overflow:visible"
       id="marker2808"
       refX="0"
       refY="0"
       orient="auto"
       inkscape:stockid="Arrow1Lstart"
       inkscape:isstock="true">
      <path
         transform="matrix(0.8,0,0,0.8,10,0)"
         style="fill:#000000;fill-opacity:1;fill-rule:evenodd;stroke:#000000;stroke-width:1pt;stroke-opacity:1"
         d="M 0,0 5,-5 -12.5,0 5,5 Z"
         id="path2806" />
    </marker>
    <marker
       style="overflow:visible"
       id="marker2678"
       refX="0"
       refY="0"
       orient="auto"
       inkscape:stockid="Arrow1Lstart"
       inkscape:isstock="true">
      <path
         transform="matrix(0.8,0,0,0.8,10,0)"
         style="fill:#000000;fill-opacity:1;fill-rule:evenodd;stroke:#000000;stroke-width:1pt;stroke-opacity:1"
         d="M 0,0 5,-5 -12.5,0 5,5 Z"
         id="path2676" />
    </marker>
    <marker
       style="overflow:visible"
       id="marker2554"
       refX="0"
       refY="0"
       orient="auto"
       inkscape:stockid="Arrow1Lstart"
       inkscape:isstock="true">
      <path
         transform="matrix(0.8,0,0,0.8,10,0)"
         style="fill:#000000;fill-opacity:1;fill-rule:evenodd;stroke:#000000;stroke-width:1pt;stroke-opacity:1"
         d="M 0,0 5,-5 -12.5,0 5,5 Z"
         id="path2552" />
    </marker>
    <marker
       style="overflow:visible"
       id="marker2436"
       refX="0"
       refY="0"
       orient="auto"
       inkscape:stockid="Arrow1Lstart"
       inkscape:isstock="true">
      <path
         transform="matrix(0.8,0,0,0.8,10,0)"
         style="fill:#000000;fill-opacity:1;fill-rule:evenodd;stroke:#000000;stroke-width:1pt;stroke-opacity:1"
         d="M 0,0 5,-5 -12.5,0 5,5 Z"
         id="path2434" />
    </marker>
    <marker
       style="overflow:visible"
       id="marker2324"
       refX="0"
       refY="0"
       orient="auto"
       inkscape:stockid="Arrow1Lstart"
       inkscape:isstock="true">
      <path
         transform="matrix(0.8,0,0,0.8,10,0)"
         style="fill:#000000;fill-opacity:1;fill-rule:evenodd;stroke:#000000;stroke-width:1pt;stroke-opacity:1"
         d="M 0,0 5,-5 -12.5,0 5,5 Z"
         id="path2322" />
    </marker>
    <marker
       style="overflow:visible"
       id="marker2218"
       refX="0"
       refY="0"
       orient="auto"
       inkscape:stockid="Arrow1Lstart"
       inkscape:isstock="true">
      <path
         transform="matrix(0.8,0,0,0.8,10,0)"
         style="fill:#000000;fill-opacity:1;fill-rule:evenodd;stroke:#000000;stroke-width:1pt;stroke-opacity:1"
         d="M 0,0 5,-5 -12.5,0 5,5 Z"
         id="path2216" />
    </marker>
    <marker
       style="overflow:visible"
       id="marker2118"
       refX="0"
       refY="0"
       orient="auto"
       inkscape:stockid="Arrow1Lstart"
       inkscape:isstock="true">
      <path
         transform="matrix(0.8,0,0,0.8,10,0)"
         style="fill:#000000;fill-opacity:1;fill-rule:evenodd;stroke:#000000;stroke-width:1pt;stroke-opacity:1"
         d="M 0,0 5,-5 -12.5,0 5,5 Z"
         id="path2116" />
    </marker>
    <marker
       style="overflow:visible"
       id="marker2024"
       refX="0"
       refY="0"
       orient="auto"
       inkscape:stockid="Arrow1Lstart"
       inkscape:isstock="true">
      <path
         transform="matrix(0.8,0,0,0.8,10,0)"
         style="fill:#000000;fill-opacity:1;fill-rule:evenodd;stroke:#000000;stroke-width:1pt;stroke-opacity:1"
         d="M 0,0 5,-5 -12.5,0 5,5 Z"
         id="path2022" />
    </marker>
    <marker
       style="overflow:visible"
       id="marker1936"
       refX="0"
       refY="0"
       orient="auto"
       inkscape:stockid="Arrow1Lstart"
       inkscape:isstock="true">
      <path
         transform="matrix(0.8,0,0,0.8,10,0)"
         style="fill:#000000;fill-opacity:1;fill-rule:evenodd;stroke:#000000;stroke-width:1pt;stroke-opacity:1"
         d="M 0,0 5,-5 -12.5,0 5,5 Z"
         id="path1934" />
    </marker>
    <marker
       style="overflow:visible"
       id="marker1854"
       refX="0"
       refY="0"
       orient="auto"
       inkscape:stockid="Arrow1Lstart"
       inkscape:isstock="true">
      <path
         transform="matrix(0.8,0,0,0.8,10,0)"
         style="fill:#000000;fill-opacity:1;fill-rule:evenodd;stroke:#000000;stroke-width:1pt;stroke-opacity:1"
         d="M 0,0 5,-5 -12.5,0 5,5 Z"
         id="path1852" />
    </marker>
    <marker
       style="overflow:visible"
       id="marker1778"
       refX="0"
       refY="0"
       orient="auto"
       inkscape:stockid="Arrow1Lstart"
       inkscape:isstock="true">
      <path
         transform="matrix(0.8,0,0,0.8,10,0)"
         style="fill:#000000;fill-opacity:1;fill-rule:evenodd;stroke:#000000;stroke-width:1pt;stroke-opacity:1"
         d="M 0,0 5,-5 -12.5,0 5,5 Z"
         id="path1776" />
    </marker>
    <marker
       style="overflow:visible"
       id="marker1708"
       refX="0"
       refY="0"
       orient="auto"
       inkscape:stockid="Arrow1Lstart"
       inkscape:isstock="true">
      <path
         transform="matrix(0.8,0,0,0.8,10,0)"
         style="fill:#000000;fill-opacity:1;fill-rule:evenodd;stroke:#000000;stroke-width:1pt;stroke-opacity:1"
         d="M 0,0 5,-5 -12.5,0 5,5 Z"
         id="path1706" />
    </marker>
    <marker
       style="overflow:visible"
       id="marker1644"
       refX="0"
       refY="0"
       orient="auto"
       inkscape:stockid="Arrow1Lstart"
       inkscape:isstock="true">
      <path
         transform="matrix(0.8,0,0,0.8,10,0)"
         style="fill:#000000;fill-opacity:1;fill-rule:evenodd;stroke:#000000;stroke-width:1pt;stroke-opacity:1"
         d="M 0,0 5,-5 -12.5,0 5,5 Z"
         id="path1642" />
    </marker>
    <marker
       style="overflow:visible"
       id="marker1586"
       refX="0"
       refY="0"
       orient="auto"
       inkscape:stockid="Arrow1Lstart"
       inkscape:isstock="true">
      <path
         transform="matrix(0.8,0,0,0.8,10,0)"
         style="fill:#000000;fill-opacity:1;fill-rule:evenodd;stroke:#000000;stroke-width:1pt;stroke-opacity:1"
         d="M 0,0 5,-5 -12.5,0 5,5 Z"
         id="path1584" />
    </marker>
    <marker
       style="overflow:visible"
       id="marker1534"
       refX="0"
       refY="0"
       orient="auto"
       inkscape:stockid="Arrow1Lstart"
       inkscape:isstock="true">
      <path
         transform="matrix(0.8,0,0,0.8,10,0)"
         style="fill:#000000;fill-opacity:1;fill-rule:evenodd;stroke:#000000;stroke-width:1pt;stroke-opacity:1"
         d="M 0,0 5,-5 -12.5,0 5,5 Z"
         id="path1532" />
    </marker>
    <marker
       style="overflow:visible"
       id="marker1488"
       refX="0"
       refY="0"
       orient="auto"
       inkscape:stockid="Arrow1Lstart"
       inkscape:isstock="true">
      <path
         transform="matrix(0.8,0,0,0.8,10,0)"
         style="fill:#000000;fill-opacity:1;fill-rule:evenodd;stroke:#000000;stroke-width:1pt;stroke-opacity:1"
         d="M 0,0 5,-5 -12.5,0 5,5 Z"
         id="path1486" />
    </marker>
    <marker
       style="overflow:visible"
       id="marker1448"
       refX="0"
       refY="0"
       orient="auto"
       inkscape:stockid="Arrow1Lstart"
       inkscape:isstock="true">
      <path
         transform="matrix(0.8,0,0,0.8,10,0)"
         style="fill:#000000;fill-opacity:1;fill-rule:evenodd;stroke:#000000;stroke-width:1pt;stroke-opacity:1"
         d="M 0,0 5,-5 -12.5,0 5,5 Z"
         id="path1446" />
    </marker>
    <marker
       style="overflow:visible"
       id="marker1414"
       refX="0"
       refY="0"
       orient="auto"
       inkscape:stockid="Arrow1Lstart"
       inkscape:isstock="true">
      <path
         transform="matrix(0.8,0,0,0.8,10,0)"
         style="fill:#000000;fill-opacity:1;fill-rule:evenodd;stroke:#000000;stroke-width:1pt;stroke-opacity:1"
         d="M 0,0 5,-5 -12.5,0 5,5 Z"
         id="path1412" />
    </marker>
    <marker
       style="overflow:visible"
       id="marker1386"
       refX="0"
       refY="0"
       orient="auto"
       inkscape:stockid="Arrow1Lstart"
       inkscape:isstock="true">
      <path
         transform="matrix(0.8,0,0,0.8,10,0)"
         style="fill:#000000;fill-opacity:1;fill-rule:evenodd;stroke:#000000;stroke-width:1pt;stroke-opacity:1"
         d="M 0,0 5,-5 -12.5,0 5,5 Z"
         id="path1384" />
    </marker>
    <marker
       style="overflow:visible"
       id="Arrow1Lstart"
       refX="0"
       refY="0"
       orient="auto"
       inkscape:stockid="Arrow1Lstart"
       inkscape:isstock="true">
      <path
         transform="matrix(0.8,0,0,0.8,10,0)"
         style="fill:#000000;fill-opacity:1;fill-rule:evenodd;stroke:#000000;stroke-width:1pt;stroke-opacity:1"
         d="M 0,0 5,-5 -12.5,0 5,5 Z"
         id="path1102" />
    </marker>
    <marker
       style="overflow:visible"
       id="marker4644-5"
       refX="0"
       refY="0"
       orient="auto"
       inkscape:stockid="Arrow1Lstart"
       inkscape:isstock="true">
      <path
         transform="matrix(0.8,0,0,0.8,10,0)"
         style="fill:#6b3e57;fill-opacity:1;fill-rule:evenodd;stroke:#6b3f58;stroke-width:1pt;stroke-opacity:1"
         d="M 0,0 5,-5 -12.5,0 5,5 Z"
         id="path4642-4" />
    </marker>
    <marker
       style="overflow:visible"
       id="marker4634-3"
       refX="0"
       refY="0"
       orient="auto"
       inkscape:stockid="Arrow1Lstart"
       inkscape:isstock="true">
      <path
         transform="matrix(0.8,0,0,0.8,10,0)"
         style="fill:#262648;fill-opacity:1;fill-rule:evenodd;stroke:#2c2f64;stroke-width:1pt;stroke-opacity:1"
         d="M 0,0 5,-5 -12.5,0 5,5 Z"
         id="path4632-9" />
    </marker>
    <marker
       style="overflow:visible"
       id="marker4644-5-8"
       refX="0"
       refY="0"
       orient="auto"
       inkscape:stockid="Arrow1Lstart"
       inkscape:isstock="true">
      <path
         transform="matrix(0.8,0,0,0.8,10,0)"
         style="fill:#6b3e57;fill-opacity:1;fill-rule:evenodd;stroke:#6b3f58;stroke-width:1pt;stroke-opacity:1"
         d="M 0,0 5,-5 -12.5,0 5,5 Z"
         id="path4642-4-7" />
    </marker>
    <marker
       style="overflow:visible"
       id="marker4634-3-9"
       refX="0"
       refY="0"
       orient="auto"
       inkscape:stockid="Arrow1Lstart"
       inkscape:isstock="true">
      <path
         transform="matrix(0.8,0,0,0.8,10,0)"
         style="fill:#262648;fill-opacity:1;fill-rule:evenodd;stroke:#2c2f64;stroke-width:1pt;stroke-opacity:1"
         d="M 0,0 5,-5 -12.5,0 5,5 Z"
         id="path4632-9-3" />
    </marker>
    <marker
       style="overflow:visible"
       id="marker4644-8"
       refX="0"
       refY="0"
       orient="auto"
       inkscape:stockid="Arrow1Lstart"
       inkscape:isstock="true">
      <path
         transform="matrix(0.8,0,0,0.8,10,0)"
         style="fill:#6b3e57;fill-opacity:1;fill-rule:evenodd;stroke:#6b3f58;stroke-width:1pt;stroke-opacity:1"
         d="M 0,0 5,-5 -12.5,0 5,5 Z"
         id="path4642-8" />
    </marker>
    <marker
       style="overflow:visible"
       id="marker4634-4"
       refX="0"
       refY="0"
       orient="auto"
       inkscape:stockid="Arrow1Lstart"
       inkscape:isstock="true">
      <path
         transform="matrix(0.8,0,0,0.8,10,0)"
         style="fill:#262648;fill-opacity:1;fill-rule:evenodd;stroke:#2c2f64;stroke-width:1pt;stroke-opacity:1"
         d="M 0,0 5,-5 -12.5,0 5,5 Z"
         id="path4632-0" />
    </marker>
    <marker
       style="overflow:visible"
       id="marker4644-5-8-6"
       refX="0"
       refY="0"
       orient="auto"
       inkscape:stockid="Arrow1Lstart"
       inkscape:isstock="true">
      <path
         transform="matrix(0.8,0,0,0.8,10,0)"
         style="fill:#6b3e57;fill-opacity:1;fill-rule:evenodd;stroke:#6b3f58;stroke-width:1pt;stroke-opacity:1"
         d="M 0,0 5,-5 -12.5,0 5,5 Z"
         id="path4642-4-7-7" />
    </marker>
    <marker
       style="overflow:visible"
       id="marker4634-3-9-3"
       refX="0"
       refY="0"
       orient="auto"
       inkscape:stockid="Arrow1Lstart"
       inkscape:isstock="true">
      <path
         transform="matrix(0.8,0,0,0.8,10,0)"
         style="fill:#262648;fill-opacity:1;fill-rule:evenodd;stroke:#2c2f64;stroke-width:1pt;stroke-opacity:1"
         d="M 0,0 5,-5 -12.5,0 5,5 Z"
         id="path4632-9-3-6" />
    </marker>
    <marker
       style="overflow:visible"
       id="marker4644-8-0"
       refX="0"
       refY="0"
       orient="auto"
       inkscape:stockid="Arrow1Lstart"
       inkscape:isstock="true">
      <path
         transform="matrix(0.8,0,0,0.8,10,0)"
         style="fill:#6b3e57;fill-opacity:1;fill-rule:evenodd;stroke:#6b3f58;stroke-width:1pt;stroke-opacity:1"
         d="M 0,0 5,-5 -12.5,0 5,5 Z"
         id="path4642-8-2" />
    </marker>
    <marker
       style="overflow:visible"
       id="marker4634-4-6"
       refX="0"
       refY="0"
       orient="auto"
       inkscape:stockid="Arrow1Lstart"
       inkscape:isstock="true">
      <path
         transform="matrix(0.8,0,0,0.8,10,0)"
         style="fill:#262648;fill-opacity:1;fill-rule:evenodd;stroke:#2c2f64;stroke-width:1pt;stroke-opacity:1"
         d="M 0,0 5,-5 -12.5,0 5,5 Z"
         id="path4632-0-9" />
    </marker>
  </defs>
  <sodipodi:namedview
     id="base"
     pagecolor="#ffffff"
     bordercolor="#666666"
     borderopacity="1.0"
     inkscape:pageopacity="0.0"
     inkscape:pageshadow="2"
     inkscape:zoom="3.3302708"
     inkscape:cx="90.822793"
     inkscape:cy="101.45499"
     inkscape:document-units="mm"
     inkscape:current-layer="g906"
     inkscape:document-rotation="0"
     showgrid="false"
     inkscape:window-width="1853"
     inkscape:window-height="1025"
     inkscape:window-x="67"
     inkscape:window-y="27"
     inkscape:window-maximized="1"
     showguides="false" />
  <metadata
     id="metadata5">
    <rdf:RDF>
      <cc:Work
         rdf:about="">
        <dc:format>image/svg+xml</dc:format>
        <dc:type
           rdf:resource="http://purl.org/dc/dcmitype/StillImage" />
        <dc:title></dc:title>
      </cc:Work>
    </rdf:RDF>
  </metadata>
  <g
     inkscape:label="Layer 1"
     inkscape:groupmode="layer"
     id="layer1"
     transform="translate(2538.5845,2393.1819)">
    <g
       id="g906">
      <text
         xml:space="preserve"
         style="font-style:normal;font-weight:normal;font-size:1.05833px;line-height:1.25;font-family:sans-serif;fill:#000000;fill-opacity:1;stroke:none;stroke-width:0.0264583"
         x="-2367.8586"
         y="-2198.3167"
         id="text1074"><tspan
           sodipodi:role="line"
           id="tspan1072"
           x="-2367.8586"
           y="-2198.3167"
           style="stroke-width:0.0264583" /></text>
      <path
         id="rect940-1-8"
         style="fill:#d3cbc8;fill-opacity:1;stroke-width:0.446969;stroke-miterlimit:4;stroke-dasharray:none"
         d="m -2533.2893,-2393.1778 c -2.8609,0 -5.1775,2.2463 -5.2904,5.0785 v 0 0.2166 0.415 21.3002 h 32.7941 v -16.0051 -5.9267 -5.0785 z" />
      <path
         id="rect982-2"
         style="fill:#706b71;fill-opacity:1;stroke-width:0.23554"
         d="m -2527.3241,-2379.5904 c -1.5465,0 -2.7914,1.245 -2.7914,2.7914 0,0.1013 0.01,0.2013 0.016,0.2998 h -0.016 v 10.3317 h 24.3252 v -13.4229 z" />
      <text
         xml:space="preserve"
         style="font-style:normal;font-weight:normal;font-size:1.05833px;line-height:1.25;font-family:sans-serif;fill:#000000;fill-opacity:1;stroke:none;stroke-width:0.0264583"
         x="-2507.311"
         y="-2334.4158"
         id="text1074-3"><tspan
           sodipodi:role="line"
           id="tspan1072-8"
           x="-2507.311"
           y="-2334.4158"
           style="stroke-width:0.0264583" /></text>
      <path
         id="path12682"
         style="color:#000000;font-style:normal;font-variant:normal;font-weight:normal;font-stretch:normal;font-size:medium;line-height:normal;font-family:sans-serif;font-variant-ligatures:normal;font-variant-position:normal;font-variant-caps:normal;font-variant-numeric:normal;font-variant-alternates:normal;font-variant-east-asian:normal;font-feature-settings:normal;font-variation-settings:normal;text-indent:0;text-align:start;text-decoration:none;text-decoration-line:none;text-decoration-style:solid;text-decoration-color:#000000;letter-spacing:normal;word-spacing:normal;text-transform:none;writing-mode:lr-tb;direction:ltr;text-orientation:mixed;dominant-baseline:auto;baseline-shift:baseline;text-anchor:start;white-space:normal;shape-padding:0;shape-margin:0;inline-size:0;clip-rule:nonzero;display:inline;overflow:visible;visibility:visible;isolation:auto;mix-blend-mode:normal;color-interpolation:sRGB;color-interpolation-filters:linearRGB;solid-color:#000000;solid-opacity:1;vector-effect:none;fill:#6b3f58;fill-opacity:1;fill-rule:nonzero;stroke:none;stroke-width:0.1;stroke-linecap:butt;stroke-linejoin:miter;stroke-miterlimit:4;stroke-dasharray:none;stroke-dashoffset:0;stroke-opacity:1;color-rendering:auto;image-rendering:auto;shape-rendering:auto;text-rendering:auto;enable-background:accumulate;stop-color:#000000"
         d="m -2527.1126,-2375.831 v 0.3999 h 21.3223 v -0.3999 z" />
      <g
         id="g12678"
         transform="matrix(0.1,0,0,0.1,-2269.9686,-2141.7072)" />
      <path
         id="path12702"
         style="color:#000000;font-style:normal;font-variant:normal;font-weight:normal;font-stretch:normal;font-size:medium;line-height:normal;font-family:sans-serif;font-variant-ligatures:normal;font-variant-position:normal;font-variant-caps:normal;font-variant-numeric:normal;font-variant-alternates:normal;font-variant-east-asian:normal;font-feature-settings:normal;font-variation-settings:normal;text-indent:0;text-align:start;text-decoration:none;text-decoration-line:none;text-decoration-style:solid;text-decoration-color:#000000;letter-spacing:normal;word-spacing:normal;text-transform:none;writing-mode:lr-tb;direction:ltr;text-orientation:mixed;dominant-baseline:auto;baseline-shift:baseline;text-anchor:start;white-space:normal;shape-padding:0;shape-margin:0;inline-size:0;clip-rule:nonzero;display:inline;overflow:visible;visibility:visible;isolation:auto;mix-blend-mode:normal;color-interpolation:sRGB;color-interpolation-filters:linearRGB;solid-color:#000000;solid-opacity:1;vector-effect:none;fill:#2c2f64;fill-opacity:1;fill-rule:nonzero;stroke:none;stroke-width:0.1;stroke-linecap:butt;stroke-linejoin:miter;stroke-miterlimit:4;stroke-dasharray:none;stroke-dashoffset:0;stroke-opacity:1;color-rendering:auto;image-rendering:auto;shape-rendering:auto;text-rendering:auto;enable-background:accumulate;stop-color:#000000"
         d="m -2527.1126,-2374.2932 v 0.4 h 21.3223 v -0.4 z" />
      <g
         id="g12698"
         transform="matrix(0.1,0,0,0.1,-2269.9686,-2141.7072)" />
      <rect
         style="fill:#c2b7b3;fill-opacity:1;stroke:#ac9d93;stroke-width:0.2;stroke-miterlimit:4;stroke-dasharray:none;stroke-opacity:1"
         id="rect1026-9-1"
         width="18.074202"
         height="2.8395638"
         x="-2525.979"
         y="-2392.3479"
         ry="1.3856148" />
      <rect
         style="fill:#c2b7b3;fill-opacity:1;stroke:#ac9d93;stroke-width:0.4;stroke-miterlimit:4;stroke-dasharray:9.6, 0.4;stroke-dashoffset:0;stroke-opacity:1"
         id="rect1026-1-7-3"
         width="0.4584918"
         height="1.0283102"
         x="-2392.9775"
         y="2523.4143"
         ry="0"
         transform="rotate(90)" />
      <rect
         style="fill:#c2b7b3;fill-opacity:1;stroke:none;stroke-width:0.0734641;stroke-miterlimit:4;stroke-dasharray:none;stroke-opacity:1"
         id="rect1026-1-2-9-5"
         width="1.0795724"
         height="0.98297042"
         x="-2393.1777"
         y="2523.4368"
         ry="0"
         transform="rotate(90)" />
      <rect
         style="fill:#c2b7b3;fill-opacity:1;stroke:#ac9d93;stroke-width:0.4;stroke-miterlimit:4;stroke-dasharray:9.6, 0.4;stroke-dashoffset:0;stroke-opacity:1"
         id="rect1026-1-7-0-8"
         width="0.4584918"
         height="1.0283102"
         x="-2392.9775"
         y="2521.6772"
         ry="0"
         transform="rotate(90)" />
      <rect
         style="fill:#c2b7b3;fill-opacity:1;stroke:none;stroke-width:0.0734641;stroke-miterlimit:4;stroke-dasharray:none;stroke-opacity:1"
         id="rect1026-1-2-9-0-7"
         width="1.0795724"
         height="0.98297042"
         x="-2393.1777"
         y="2521.6997"
         ry="0"
         transform="rotate(90)" />
      <rect
         style="fill:#c2b7b3;fill-opacity:1;stroke:#ac9d93;stroke-width:0.4;stroke-miterlimit:4;stroke-dasharray:9.6, 0.4;stroke-dashoffset:0;stroke-opacity:1"
         id="rect1026-1-7-4-3"
         width="0.4584918"
         height="1.0283102"
         x="-2392.9775"
         y="2519.9402"
         ry="0"
         transform="rotate(90)" />
      <rect
         style="fill:#c2b7b3;fill-opacity:1;stroke:none;stroke-width:0.0734641;stroke-miterlimit:4;stroke-dasharray:none;stroke-opacity:1"
         id="rect1026-1-2-9-4-5"
         width="1.0795724"
         height="0.98297042"
         x="-2393.1777"
         y="2519.9626"
         ry="0"
         transform="rotate(90)" />
      <path
         d="m -2520.623,-2391.3456 q 0.088,0.1991 0.088,0.4181 0,0.2189 -0.088,0.4181 -0.086,0.1977 -0.2345,0.3404 -0.1469,0.1426 -0.3503,0.2274 -0.202,0.085 -0.4237,0.085 -0.2232,0 -0.428,-0.085 -0.2034,-0.085 -0.3517,-0.2274 -0.1469,-0.1427 -0.2345,-0.3404 -0.088,-0.1992 -0.088,-0.4181 0,-0.219 0.088,-0.4181 0.088,-0.1992 0.2345,-0.3433 0.1483,-0.144 0.3517,-0.2288 0.2048,-0.085 0.428,-0.085 0.2217,0 0.4237,0.085 0.2034,0.085 0.3503,0.2288 0.1483,0.1441 0.2345,0.3433 z m -1.8843,0.4181 q 0,0.1737 0.068,0.3319 0.069,0.1582 0.1851,0.274 0.1172,0.1144 0.2796,0.1822 0.1639,0.068 0.3433,0.068 0.2373,0 0.4378,-0.1144 0.202,-0.1158 0.3193,-0.3121 0.1172,-0.1978 0.1172,-0.4294 0,-0.2331 -0.1172,-0.4308 -0.1173,-0.1978 -0.3193,-0.3122 -0.2005,-0.1144 -0.4378,-0.1144 -0.1794,0 -0.3419,0.068 -0.1624,0.068 -0.2796,0.1822 -0.1173,0.1144 -0.1865,0.274 -0.068,0.1582 -0.068,0.3334 z"
         style="font-style:normal;font-variant:normal;font-weight:bold;font-stretch:normal;font-size:28.9278px;line-height:1.25;font-family:Sawasdee;-inkscape-font-specification:'Sawasdee, Normal';font-variant-ligatures:normal;font-variant-caps:normal;font-variant-numeric:normal;font-variant-east-asian:normal;fill:#d3cbc8;fill-opacity:1;stroke:none;stroke-width:0.0264583"
         id="path6322-1" />
      <path
         d="m -2518.9859,-2391.2001 v 0.2175 h -0.9902 v 1.1074 h -0.2246 v -2.1089 h 1.3038 v 0.2176 h -1.0792 v 0.5664 z"
         style="font-style:normal;font-variant:normal;font-weight:bold;font-stretch:normal;font-size:28.9278px;line-height:1.25;font-family:Sawasdee;-inkscape-font-specification:'Sawasdee, Normal';font-variant-ligatures:normal;font-variant-caps:normal;font-variant-numeric:normal;font-variant-east-asian:normal;fill:#d3cbc8;fill-opacity:1;stroke:none;stroke-width:0.0264583"
         id="path6324-4" />
      <path
         d="m -2517.3474,-2391.2001 v 0.2175 h -0.9902 v 1.1074 h -0.2246 v -2.1089 h 1.3037 v 0.2176 h -1.0791 v 0.5664 z"
         style="font-style:normal;font-variant:normal;font-weight:bold;font-stretch:normal;font-size:28.9278px;line-height:1.25;font-family:Sawasdee;-inkscape-font-specification:'Sawasdee, Normal';font-variant-ligatures:normal;font-variant-caps:normal;font-variant-numeric:normal;font-variant-east-asian:normal;fill:#d3cbc8;fill-opacity:1;stroke:none;stroke-width:0.0264583"
         id="path6326-5" />
      <path
         d="m -2516.4265,-2391.4848 q 0.226,0 0.387,0.1639 0.1625,0.1638 0.1625,0.3913 0,0.2302 -0.1611,0.394 -0.161,0.1639 -0.3884,0.1639 -0.226,0 -0.387,-0.1639 -0.161,-0.1638 -0.161,-0.394 0,-0.2275 0.161,-0.3913 0.1624,-0.1639 0.387,-0.1639 z"
         style="font-style:normal;font-variant:normal;font-weight:bold;font-stretch:normal;font-size:28.9278px;line-height:1.25;font-family:Sawasdee;-inkscape-font-specification:'Sawasdee, Normal';font-variant-ligatures:normal;font-variant-caps:normal;font-variant-numeric:normal;font-variant-east-asian:normal;fill:#d3cbc8;fill-opacity:1;stroke:none;stroke-width:0.0264583"
         id="path6328-7" />
      <path
         d="m -2513.4815,-2391.3456 q 0.088,0.1991 0.088,0.4181 0,0.2189 -0.088,0.4181 -0.086,0.1977 -0.2344,0.3404 -0.1469,0.1426 -0.3503,0.2274 -0.202,0.085 -0.4238,0.085 -0.2232,0 -0.428,-0.085 -0.2034,-0.085 -0.3517,-0.2274 -0.1469,-0.1427 -0.2344,-0.3404 -0.088,-0.1992 -0.088,-0.4181 0,-0.219 0.088,-0.4181 0.088,-0.1992 0.2344,-0.3433 0.1483,-0.144 0.3517,-0.2288 0.2048,-0.085 0.428,-0.085 0.2218,0 0.4238,0.085 0.2034,0.085 0.3503,0.2288 0.1483,0.1441 0.2344,0.3433 z m -1.8842,0.4181 q 0,0.1737 0.068,0.3319 0.069,0.1582 0.185,0.274 0.1173,0.1144 0.2797,0.1822 0.1638,0.068 0.3432,0.068 0.2373,0 0.4379,-0.1144 0.202,-0.1158 0.3192,-0.3121 0.1173,-0.1978 0.1173,-0.4294 0,-0.2331 -0.1173,-0.4308 -0.1172,-0.1978 -0.3192,-0.3122 -0.2006,-0.1144 -0.4379,-0.1144 -0.1794,0 -0.3418,0.068 -0.1624,0.068 -0.2797,0.1822 -0.1172,0.1144 -0.1864,0.274 -0.068,0.1582 -0.068,0.3334 z"
         style="font-style:normal;font-variant:normal;font-weight:bold;font-stretch:normal;font-size:28.9278px;line-height:1.25;font-family:Sawasdee;-inkscape-font-specification:'Sawasdee, Normal';font-variant-ligatures:normal;font-variant-caps:normal;font-variant-numeric:normal;font-variant-east-asian:normal;fill:#d3cbc8;fill-opacity:1;stroke:none;stroke-width:0.0264583"
         id="path6330-0" />
      <path
         d="m -2513.0591,-2389.8752 v -2.1301 l 1.7388,1.6173 v -1.5961 h 0.2245 v 2.1329 l -1.7387,-1.6173 v 1.5933 z"
         style="font-style:normal;font-variant:normal;font-weight:bold;font-stretch:normal;font-size:28.9278px;line-height:1.25;font-family:Sawasdee;-inkscape-font-specification:'Sawasdee, Normal';font-variant-ligatures:normal;font-variant-caps:normal;font-variant-numeric:normal;font-variant-east-asian:normal;fill:#d3cbc8;fill-opacity:1;stroke:none;stroke-width:0.0264583"
         id="path6332-7" />
      <path
         id="path12314"
         style="color:#000000;font-style:normal;font-variant:normal;font-weight:normal;font-stretch:normal;font-size:medium;line-height:normal;font-family:sans-serif;font-variant-ligatures:normal;font-variant-position:normal;font-variant-caps:normal;font-variant-numeric:normal;font-variant-alternates:normal;font-variant-east-asian:normal;font-feature-settings:normal;font-variation-settings:normal;text-indent:0;text-align:start;text-decoration:none;text-decoration-line:none;text-decoration-style:solid;text-decoration-color:#000000;letter-spacing:normal;word-spacing:normal;text-transform:none;writing-mode:lr-tb;direction:ltr;text-orientation:mixed;dominant-baseline:auto;baseline-shift:baseline;text-anchor:start;white-space:normal;shape-padding:0;shape-margin:0;inline-size:0;clip-rule:nonzero;display:inline;overflow:visible;visibility:visible;isolation:auto;mix-blend-mode:normal;color-interpolation:sRGB;color-interpolation-filters:linearRGB;solid-color:#000000;solid-opacity:1;vector-effect:none;fill:#c2b7b3;fill-opacity:1;fill-rule:nonzero;stroke:none;stroke-width:0.2;stroke-linecap:butt;stroke-linejoin:miter;stroke-miterlimit:4;stroke-dasharray:none;stroke-dashoffset:0;stroke-opacity:1;color-rendering:auto;image-rendering:auto;shape-rendering:auto;text-rendering:auto;enable-background:accumulate;stop-color:#000000"
         d="m -2538.4817,-2388.0993 v 1.3506 h 32.6914 v -1.3506 z" />
      <path
         id="path12316"
         style="color:#000000;font-style:normal;font-variant:normal;font-weight:normal;font-stretch:normal;font-size:medium;line-height:normal;font-family:sans-serif;font-variant-ligatures:normal;font-variant-position:normal;font-variant-caps:normal;font-variant-numeric:normal;font-variant-alternates:normal;font-variant-east-asian:normal;font-feature-settings:normal;font-variation-settings:normal;text-indent:0;text-align:start;text-decoration:none;text-decoration-line:none;text-decoration-style:solid;text-decoration-color:#000000;letter-spacing:normal;word-spacing:normal;text-transform:none;writing-mode:lr-tb;direction:ltr;text-orientation:mixed;dominant-baseline:auto;baseline-shift:baseline;text-anchor:start;white-space:normal;shape-padding:0;shape-margin:0;inline-size:0;clip-rule:nonzero;display:inline;overflow:visible;visibility:visible;isolation:auto;mix-blend-mode:normal;color-interpolation:sRGB;color-interpolation-filters:linearRGB;solid-color:#000000;solid-opacity:1;vector-effect:none;fill:#ac9d93;fill-opacity:1;fill-rule:nonzero;stroke:none;stroke-width:0.1;stroke-linecap:butt;stroke-linejoin:miter;stroke-miterlimit:4;stroke-dasharray:none;stroke-dashoffset:0;stroke-opacity:1;color-rendering:auto;image-rendering:auto;shape-rendering:auto;text-rendering:auto;enable-background:accumulate;stop-color:#000000"
         d="m -2538.5817,-2388.1994 v 0.1 1.4508 h 32.7914 v -0.2 h -32.5914 v -1.1508 h 32.5914 v -0.2 z" />
      <rect
         style="fill:#c2b7b3;fill-opacity:1;stroke:#ac9d93;stroke-width:0.4;stroke-miterlimit:4;stroke-dasharray:none;stroke-opacity:1"
         id="rect1026-1-3"
         width="4.7209854"
         height="1.3614882"
         x="-2392.9739"
         y="2528.1323"
         ry="0"
         transform="rotate(90)" />
      <rect
         style="fill:#c2b7b3;fill-opacity:1;stroke:none;stroke-width:0.204524;stroke-miterlimit:4;stroke-dasharray:none;stroke-opacity:1"
         id="rect1026-1-2-94"
         width="6.0897217"
         height="1.3505954"
         x="-2393.1819"
         y="2528.1377"
         ry="0"
         transform="rotate(90)" />
      <rect
         style="fill:#c2b7b3;fill-opacity:1;stroke:none;stroke-width:0.0128334;stroke-miterlimit:4;stroke-dasharray:none;stroke-opacity:1"
         id="rect1026-4-5"
         width="0.52026618"
         height="1.1511319"
         x="-2538.5845"
         y="-2387.9998"
         ry="0" />
      <path
         sodipodi:type="star"
         style="fill:#d3cbc8;fill-opacity:1;stroke:none;stroke-width:0.278641;stroke-miterlimit:4;stroke-dasharray:6.68739, 0.278641;stroke-dashoffset:0;stroke-opacity:1"
         id="path6341-5"
         sodipodi:sides="3"
         sodipodi:cx="-2524.1157"
         sodipodi:cy="-2390.9282"
         sodipodi:r1="1.0404421"
         sodipodi:r2="0.52022111"
         sodipodi:arg1="1.0471976"
         sodipodi:arg2="2.0943951"
         inkscape:flatsided="false"
         inkscape:rounded="0"
         inkscape:randomized="0"
         inkscape:transform-center-x="0.26004035"
         inkscape:transform-center-y="-7.8484627e-06"
         d="m -2523.5955,-2390.0272 -0.7803,-0.4505 -0.7804,-0.4505 0.7804,-0.4505 0.7803,-0.4506 0,0.9011 z" />
      <path
         sodipodi:type="star"
         style="fill:#d3cbc8;fill-opacity:1;stroke:none;stroke-width:0.278641;stroke-miterlimit:4;stroke-dasharray:6.68739, 0.278641;stroke-dashoffset:0;stroke-opacity:1"
         id="path6341-2-6"
         sodipodi:sides="3"
         sodipodi:cx="2509.7131"
         sodipodi:cy="2390.9282"
         sodipodi:r1="1.0404421"
         sodipodi:r2="0.52022111"
         sodipodi:arg1="1.0471976"
         sodipodi:arg2="2.0943951"
         inkscape:flatsided="false"
         inkscape:rounded="0"
         inkscape:randomized="0"
         inkscape:transform-center-x="-0.26020505"
         transform="scale(-1)"
         d="m 2510.2334,2391.8293 -0.7804,-0.4506 -0.7803,-0.4505 0.7803,-0.4505 0.7804,-0.4505 0,0.901 z"
         inkscape:transform-center-y="-7.9919139e-06" />
      <text
         xml:space="preserve"
         style="font-style:normal;font-weight:normal;font-size:1.05833px;line-height:1.25;font-family:sans-serif;fill:#000000;fill-opacity:1;stroke:none;stroke-width:0.0264583"
         x="-2368.0864"
         y="-2161.5166"
         id="text1074-30"><tspan
           sodipodi:role="line"
           id="tspan1072-87"
           x="-2368.0864"
           y="-2161.5166"
           style="stroke-width:0.0264583" /></text>
      <text
         xml:space="preserve"
         style="font-style:normal;font-weight:normal;font-size:1.05833px;line-height:1.25;font-family:sans-serif;fill:#000000;fill-opacity:1;stroke:none;stroke-width:0.0264583"
         x="-2507.5388"
         y="-2297.6157"
         id="text1074-3-6"><tspan
           sodipodi:role="line"
           id="tspan1072-8-8"
           x="-2507.5388"
           y="-2297.6157"
           style="stroke-width:0.0264583" /></text>
      <g
         id="g11530"
         transform="matrix(0.02253402,0,0,0.1,-2415.4257,-2141.7072)" />
    </g>
  </g>
</svg>
